<svg xmlns="http://www.w3.org/2000/svg" viewBox="0 0 340 64" fill="none">
  <!-- Symbol Icon Container -->
  <rect x="2" y="2" width="60" height="60" rx="14" fill="#008069" />
  
  <!-- Subtle Gradient Overlay -->
  <rect x="2" y="2" width="60" height="60" rx="14" fill="url(#brand-grad)" opacity="0.15" />
  
  <!-- Chat Bubble Vector -->
  <path d="M20 22C20 18.6863 22.6863 16 26 16H40C43.3137 16 46 18.6863 46 22V32C46 35.3137 43.3137 38 40 38H29L22 44V38H26C22.6863 38 20 35.3137 20 32V22Z" fill="#FFFFFF"/>
  
  <!-- Sales Growth Arrow inside Bubble -->
  <path d="M26 31L32 25L35 28L40 22" stroke="#008069" stroke-width="2.5" stroke-linecap="round" stroke-linejoin="round"/>
  <path d="M36 22H40V26" stroke="#008069" stroke-width="2.5" stroke-linecap="round" stroke-linejoin="round"/>

  <!-- Wordmark Text -->
  <text x="76" y="36" font-family="'Plus Jakarta Sans', 'Inter', -apple-system, sans-serif" font-size="24" font-weight="900" fill="#0F172A" letter-spacing="-0.03em">CHAT SALES</text>
  <text x="76" y="52" font-family="'Inter', -apple-system, sans-serif" font-size="9.5" font-weight="700" fill="#008069" letter-spacing="0.14em">SISTEMA OPERACIONAL</text>

  <defs>
    <linearGradient id="brand-grad" x1="0" y1="0" x2="64" y2="64" gradientUnits="userSpaceOnUse">
      <stop stop-color="#FFFFFF" />
      <stop offset="1" stop-color="#000000" />
    </linearGradient>
  </defs>
</svg>
